<?xml version="1.0" encoding="utf-8"?>
<!-- Generator: Adobe Illustrator 25.2.1, SVG Export Plug-In . SVG Version: 6.00 Build 0)  -->
<svg version="1.1" id="Layer_1" xmlns="http://www.w3.org/2000/svg" xmlns:xlink="http://www.w3.org/1999/xlink" x="0px" y="0px"
	 viewBox="0 0 512 512" style="enable-background:new 0 0 512 512;" xml:space="preserve">
<style type="text/css">
	.st0{opacity:0.5;}
	.st1{fill:none;stroke:#FFFFFF;stroke-width:18;stroke-linecap:round;stroke-linejoin:round;stroke-miterlimit:10;}
	.st2{opacity:0.5;fill:none;stroke:#FFFFFF;stroke-width:18;stroke-linecap:round;stroke-linejoin:round;stroke-miterlimit:10;}
	.st3{fill:none;stroke:#FFFFFF;stroke-width:10;stroke-linecap:round;stroke-linejoin:round;stroke-miterlimit:10;}
	.st4{opacity:0.9;enable-background:new    ;}
	.st5{enable-background:new    ;}
	.st6{opacity:0.5;fill-rule:evenodd;clip-rule:evenodd;fill:#FFFFFF;enable-background:new    ;}
	.st7{fill:#FFFFFF;}
</style>
<g class="st0">
	<line class="st1" x1="-403" y1="40.95" x2="-494.01" y2="88.51"/>
	<line class="st1" x1="-403" y1="40.95" x2="-311.99" y2="88.51"/>
	<line class="st1" x1="-403" y1="40.95" x2="-403" y2="136.06"/>
</g>
<g>
	<polygon class="st1" points="-311.99,418 -403,465.56 -403,383.18 -311.99,335.62 	"/>
	<line class="st1" x1="-403" y1="383.18" x2="-312.98" y2="417.62"/>
	<polygon class="st1" points="-494.01,418 -403,465.56 -403,383.18 -494.01,335.62 	"/>
	<line class="st1" x1="-403" y1="383.18" x2="-493.02" y2="417.62"/>
</g>
<g>
	<polygon class="st1" points="-311.99,335.62 -403,383.18 -403,300.81 -311.99,253.25 	"/>
	<line class="st1" x1="-403" y1="300.81" x2="-312.98" y2="335.25"/>
	<polygon class="st1" points="-494.01,335.62 -403,383.18 -403,300.81 -494.01,253.25 	"/>
	<line class="st1" x1="-403" y1="300.81" x2="-493.02" y2="335.25"/>
</g>
<g>
	<polygon class="st1" points="-311.99,253.25 -403,300.81 -403,218.44 -311.99,170.88 	"/>
	<line class="st1" x1="-403" y1="218.44" x2="-312.98" y2="252.88"/>
	<polygon class="st1" points="-494.01,253.25 -403,300.81 -403,218.44 -494.01,170.88 	"/>
	<line class="st1" x1="-403" y1="218.44" x2="-493.02" y2="252.88"/>
</g>
<g>
	<polygon class="st1" points="-311.99,170.88 -403,218.44 -403,136.06 -311.99,88.51 	"/>
	<line class="st1" x1="-403" y1="136.06" x2="-312.98" y2="170.5"/>
	<polygon class="st1" points="-494.01,170.88 -403,218.44 -403,136.06 -494.01,88.51 	"/>
	<line class="st1" x1="-403" y1="136.06" x2="-493.02" y2="170.5"/>
</g>
<g>
	<path class="st2" d="M-311.99,88.51"/>
	<path class="st2" d="M-403,40.95"/>
</g>
<path class="st2" d="M-403,136.06"/>
<path class="st2" d="M-403,40.95"/>
<g>
	<line class="st1" x1="-311.99" y1="335.62" x2="-403" y2="465.56"/>
	<line class="st1" x1="-494.01" y1="338.73" x2="-403" y2="465.56"/>
</g>
<g>
	<line class="st1" x1="-311.99" y1="253.25" x2="-403" y2="383.18"/>
	<line class="st1" x1="-494.01" y1="256.36" x2="-403" y2="383.18"/>
</g>
<g>
	<line class="st1" x1="-311.99" y1="170.88" x2="-403" y2="300.81"/>
	<line class="st1" x1="-494.01" y1="173.98" x2="-403" y2="300.81"/>
</g>
<g>
	<line class="st1" x1="-311.99" y1="88.51" x2="-403" y2="218.44"/>
	<line class="st1" x1="-494.01" y1="91.61" x2="-403" y2="218.44"/>
</g>
<line class="st1" x1="-403" y1="136.06" x2="-311.99" y2="88.51"/>
<line class="st1" x1="-403" y1="136.06" x2="-494.01" y2="88.51"/>
<g>
	<g>
		<polygon class="st3" points="-349.1,1126.92 -403,1165.44 -403,1098.72 -349.1,1060.21 		"/>
		<line class="st3" x1="-403" y1="1098.72" x2="-349.68" y2="1126.62"/>
		<polygon class="st3" points="-456.9,1126.92 -403,1165.44 -403,1098.72 -456.9,1060.21 		"/>
		<line class="st3" x1="-403" y1="1098.72" x2="-456.32" y2="1126.62"/>
	</g>
	<g>
		<polygon class="st3" points="-349.1,1060.21 -403,1098.72 -403,1032.01 -349.1,993.5 		"/>
		<line class="st3" x1="-403" y1="1032.01" x2="-349.68" y2="1059.9"/>
		<polygon class="st3" points="-456.9,1060.21 -403,1098.72 -403,1032.01 -456.9,993.5 		"/>
		<line class="st3" x1="-403" y1="1032.01" x2="-456.32" y2="1059.9"/>
	</g>
	<g>
		<polygon class="st3" points="-349.1,993.5 -403,1032.01 -403,965.3 -349.1,926.78 		"/>
		<line class="st3" x1="-403" y1="965.3" x2="-349.68" y2="993.19"/>
		<polygon class="st3" points="-456.9,993.5 -403,1032.01 -403,965.3 -456.9,926.78 		"/>
		<line class="st3" x1="-403" y1="965.3" x2="-456.32" y2="993.19"/>
	</g>
	<g>
		<polygon class="st3" points="-349.1,926.78 -403,965.3 -403,898.59 -349.1,860.07 		"/>
		<line class="st3" x1="-403" y1="898.59" x2="-349.68" y2="926.48"/>
		<polygon class="st3" points="-456.9,926.78 -403,965.3 -403,898.59 -456.9,860.07 		"/>
		<line class="st3" x1="-403" y1="898.59" x2="-456.32" y2="926.48"/>
	</g>
	<g>
		<polygon class="st3" points="-349.1,860.07 -403,898.59 -403,831.88 -349.1,793.36 		"/>
		<line class="st3" x1="-403" y1="831.88" x2="-349.68" y2="859.77"/>
		<polygon class="st3" points="-456.9,860.07 -403,898.59 -403,831.88 -456.9,793.36 		"/>
		<line class="st3" x1="-403" y1="831.88" x2="-456.32" y2="859.77"/>
	</g>
	<g>
		<polygon class="st3" points="-349.1,793.36 -403,831.88 -403,765.16 -349.1,726.65 		"/>
		<line class="st3" x1="-403" y1="765.16" x2="-349.68" y2="793.06"/>
		<polygon class="st3" points="-456.9,793.36 -403,831.88 -403,765.16 -456.9,726.65 		"/>
		<line class="st3" x1="-403" y1="765.16" x2="-456.32" y2="793.06"/>
	</g>
	<g>
		<line class="st3" x1="-403" y1="688.13" x2="-456.9" y2="726.65"/>
		<line class="st3" x1="-403" y1="688.13" x2="-349.1" y2="726.65"/>
	</g>
	<line class="st3" x1="-403" y1="688.13" x2="-403" y2="765.16"/>
	<g>
		<line class="st3" x1="-349.1" y1="1060.21" x2="-403" y2="1165.44"/>
		<line class="st3" x1="-456.9" y1="1062.72" x2="-403" y2="1165.44"/>
	</g>
	<g>
		<line class="st3" x1="-349.1" y1="993.5" x2="-403" y2="1098.72"/>
		<line class="st3" x1="-456.9" y1="996.01" x2="-403" y2="1098.72"/>
	</g>
	<g>
		<line class="st3" x1="-349.1" y1="926.78" x2="-403" y2="1032.01"/>
		<line class="st3" x1="-456.9" y1="929.3" x2="-403" y2="1032.01"/>
	</g>
	<g>
		<line class="st3" x1="-349.1" y1="860.07" x2="-403" y2="965.3"/>
		<line class="st3" x1="-456.9" y1="862.59" x2="-403" y2="965.3"/>
	</g>
	<g>
		<line class="st3" x1="-349.1" y1="793.36" x2="-403" y2="898.59"/>
		<line class="st3" x1="-456.9" y1="795.88" x2="-403" y2="898.59"/>
	</g>
	<g>
		<line class="st3" x1="-349.1" y1="726.65" x2="-403" y2="831.88"/>
		<line class="st3" x1="-456.9" y1="729.16" x2="-403" y2="831.88"/>
	</g>
	<line class="st3" x1="-403" y1="765.16" x2="-349.1" y2="726.65"/>
	<line class="st3" x1="-403" y1="765.16" x2="-456.9" y2="726.65"/>
</g>
<g>
	<path class="st1" d="M465.21,319.4V171.8c0-10.78-14.69-19.51-32.81-19.51H87.27c-18.12,0-32.81,8.74-32.81,19.51v147.6"/>
	<line class="st1" x1="54.46" y1="235.84" x2="465.21" y2="235.84"/>
	<g>
		<line class="st1" x1="112.66" y1="152.29" x2="112.66" y2="319.4"/>
		<line class="st1" x1="186.25" y1="152.29" x2="186.25" y2="319.4"/>
		<line class="st1" x1="259.84" y1="152.29" x2="259.84" y2="319.4"/>
		<line class="st1" x1="333.42" y1="152.29" x2="333.42" y2="319.4"/>
		<line class="st1" x1="407.01" y1="152.29" x2="407.01" y2="319.4"/>
	</g>
</g>
<g>
	<path id="path24297" class="st4" d="M-878.52,357.19v152.74h-152.74v25.46h152.74v152.74h25.46V535.39h152.74v-25.46h-152.74
		V357.19H-878.52z"/>
	<path id="path24299" class="st4" d="M-1413.12,357.19v152.74h-152.74v25.46h152.74v152.74h25.46V535.39h152.74v-25.46h-152.74
		V357.19H-1413.12z"/>
	<path id="path24351" class="st4" d="M-878.52-177.4v152.74h-152.74V0.8h152.74v152.74h25.46V0.8h152.74v-25.46h-152.74V-177.4
		H-878.52z"/>
	<path id="path24353" class="st4" d="M-1413.12-177.4v152.74h-152.74V0.8h152.74v152.74h25.46V0.8h152.74v-25.46h-152.74V-177.4
		H-1413.12z"/>
	<g id="g26390" transform="translate(-168.00001,-20.999988)" class="st5">
		<path id="path23021" class="st6" d="M-1003.48,97.97c-0.85,0.01-1.7,0.11-2.54,0.3l-124.75,0.1c-7.03,0-12.73,5.7-12.73,12.73
			v127.28v127.28c-0.1,7.03,5.52,12.81,12.55,12.91c7.03,0.1,12.81-5.52,12.91-12.55c0-0.12,0-0.24,0-0.36V250.91h114.75
			c7.03,0,12.73-5.7,12.73-12.73V123.68l114.56-0.05c7.03,0.1,12.81-5.52,12.91-12.55c0.1-7.03-5.52-12.81-12.55-12.91
			c-0.12,0-0.24,0-0.36,0l-124.55,0.1C-1001.51,98.06-1002.49,97.96-1003.48,97.97L-1003.48,97.97z M-1016.01,123.73v101.73h-102.03
			V123.78L-1016.01,123.73z"/>
		<path id="path23044" class="st7" d="M-800.02,98.17c-3.24,0.1-6.31,1.44-8.6,3.73l-331.14,331.14c-4.97,4.97-4.97,13.03,0.01,18
			c2.39,2.38,5.62,3.72,8.99,3.73l331.14-0.2c7.03,0,12.73-5.7,12.73-12.73V110.9c0-7.03-5.69-12.73-12.72-12.73
			C-799.75,98.16-799.89,98.17-800.02,98.17z M-812.35,141.62v287.48l-287.68,0.2L-812.35,141.62z"/>
	</g>
</g>
</svg>
