<?xml version="1.0" encoding="utf-8"?>
<!-- Generator: Adobe Illustrator 25.2.1, SVG Export Plug-In . SVG Version: 6.00 Build 0)  -->
<svg version="1.1" id="Layer_1" xmlns="http://www.w3.org/2000/svg" xmlns:xlink="http://www.w3.org/1999/xlink" x="0px" y="0px"
	 viewBox="0 0 512 512" style="enable-background:new 0 0 512 512;" xml:space="preserve">
<style type="text/css">
	.st0{opacity:0.5;}
	.st1{fill:none;stroke:#FFFFFF;stroke-width:18;stroke-linecap:round;stroke-linejoin:round;stroke-miterlimit:10;}
	.st2{opacity:0.5;fill:none;stroke:#FFFFFF;stroke-width:18;stroke-linecap:round;stroke-linejoin:round;stroke-miterlimit:10;}
	.st3{fill:none;stroke:#FFFFFF;stroke-width:10;stroke-linecap:round;stroke-linejoin:round;stroke-miterlimit:10;}
	.st4{fill:none;stroke:#FFFFFF;stroke-width:24;stroke-linecap:round;stroke-linejoin:round;stroke-miterlimit:10;}
	.st5{opacity:0.9;enable-background:new    ;}
	.st6{enable-background:new    ;}
	.st7{opacity:0.5;fill-rule:evenodd;clip-rule:evenodd;fill:#FFFFFF;enable-background:new    ;}
	.st8{fill:#FFFFFF;}
	.st9{fill:none;stroke:#FFFFFF;stroke-width:24;stroke-linejoin:round;stroke-miterlimit:10;}
</style>
<g class="st0">
	<line class="st1" x1="-1049.47" y1="40.95" x2="-1140.47" y2="88.51"/>
	<line class="st1" x1="-1049.47" y1="40.95" x2="-958.46" y2="88.51"/>
	<line class="st1" x1="-1049.47" y1="40.95" x2="-1049.47" y2="136.06"/>
</g>
<g>
	<polygon class="st1" points="-958.46,418 -1049.47,465.56 -1049.47,383.18 -958.46,335.62 	"/>
	<line class="st1" x1="-1049.47" y1="383.18" x2="-959.44" y2="417.62"/>
	<polygon class="st1" points="-1140.47,418 -1049.47,465.56 -1049.47,383.18 -1140.47,335.62 	"/>
	<line class="st1" x1="-1049.47" y1="383.18" x2="-1139.49" y2="417.62"/>
</g>
<g>
	<polygon class="st1" points="-958.46,335.62 -1049.47,383.18 -1049.47,300.81 -958.46,253.25 	"/>
	<line class="st1" x1="-1049.47" y1="300.81" x2="-959.44" y2="335.25"/>
	<polygon class="st1" points="-1140.47,335.62 -1049.47,383.18 -1049.47,300.81 -1140.47,253.25 	"/>
	<line class="st1" x1="-1049.47" y1="300.81" x2="-1139.49" y2="335.25"/>
</g>
<g>
	<polygon class="st1" points="-958.46,253.25 -1049.47,300.81 -1049.47,218.44 -958.46,170.88 	"/>
	<line class="st1" x1="-1049.47" y1="218.44" x2="-959.44" y2="252.88"/>
	<polygon class="st1" points="-1140.47,253.25 -1049.47,300.81 -1049.47,218.44 -1140.47,170.88 	"/>
	<line class="st1" x1="-1049.47" y1="218.44" x2="-1139.49" y2="252.88"/>
</g>
<g>
	<polygon class="st1" points="-958.46,170.88 -1049.47,218.44 -1049.47,136.06 -958.46,88.51 	"/>
	<line class="st1" x1="-1049.47" y1="136.06" x2="-959.44" y2="170.5"/>
	<polygon class="st1" points="-1140.47,170.88 -1049.47,218.44 -1049.47,136.06 -1140.47,88.51 	"/>
	<line class="st1" x1="-1049.47" y1="136.06" x2="-1139.49" y2="170.5"/>
</g>
<g>
	<path class="st2" d="M-958.46,88.51"/>
	<path class="st2" d="M-1049.47,40.95"/>
</g>
<path class="st2" d="M-1049.47,136.06"/>
<path class="st2" d="M-1049.47,40.95"/>
<g>
	<line class="st1" x1="-958.46" y1="335.62" x2="-1049.47" y2="465.56"/>
	<line class="st1" x1="-1140.47" y1="338.73" x2="-1049.47" y2="465.56"/>
</g>
<g>
	<line class="st1" x1="-958.46" y1="253.25" x2="-1049.47" y2="383.18"/>
	<line class="st1" x1="-1140.47" y1="256.36" x2="-1049.47" y2="383.18"/>
</g>
<g>
	<line class="st1" x1="-958.46" y1="170.88" x2="-1049.47" y2="300.81"/>
	<line class="st1" x1="-1140.47" y1="173.98" x2="-1049.47" y2="300.81"/>
</g>
<g>
	<line class="st1" x1="-958.46" y1="88.51" x2="-1049.47" y2="218.44"/>
	<line class="st1" x1="-1140.47" y1="91.61" x2="-1049.47" y2="218.44"/>
</g>
<line class="st1" x1="-1049.47" y1="136.06" x2="-958.46" y2="88.51"/>
<line class="st1" x1="-1049.47" y1="136.06" x2="-1140.47" y2="88.51"/>
<g>
	<g>
		<polygon class="st3" points="-995.56,1126.92 -1049.47,1165.44 -1049.47,1098.72 -995.56,1060.21 		"/>
		<line class="st3" x1="-1049.47" y1="1098.72" x2="-996.15" y2="1126.62"/>
		<polygon class="st3" points="-1103.37,1126.92 -1049.47,1165.44 -1049.47,1098.72 -1103.37,1060.21 		"/>
		<line class="st3" x1="-1049.47" y1="1098.72" x2="-1102.79" y2="1126.62"/>
	</g>
	<g>
		<polygon class="st3" points="-995.56,1060.21 -1049.47,1098.72 -1049.47,1032.01 -995.56,993.5 		"/>
		<line class="st3" x1="-1049.47" y1="1032.01" x2="-996.15" y2="1059.9"/>
		<polygon class="st3" points="-1103.37,1060.21 -1049.47,1098.72 -1049.47,1032.01 -1103.37,993.5 		"/>
		<line class="st3" x1="-1049.47" y1="1032.01" x2="-1102.79" y2="1059.9"/>
	</g>
	<g>
		<polygon class="st3" points="-995.56,993.5 -1049.47,1032.01 -1049.47,965.3 -995.56,926.78 		"/>
		<line class="st3" x1="-1049.47" y1="965.3" x2="-996.15" y2="993.19"/>
		<polygon class="st3" points="-1103.37,993.5 -1049.47,1032.01 -1049.47,965.3 -1103.37,926.78 		"/>
		<line class="st3" x1="-1049.47" y1="965.3" x2="-1102.79" y2="993.19"/>
	</g>
	<g>
		<polygon class="st3" points="-995.56,926.78 -1049.47,965.3 -1049.47,898.59 -995.56,860.07 		"/>
		<line class="st3" x1="-1049.47" y1="898.59" x2="-996.15" y2="926.48"/>
		<polygon class="st3" points="-1103.37,926.78 -1049.47,965.3 -1049.47,898.59 -1103.37,860.07 		"/>
		<line class="st3" x1="-1049.47" y1="898.59" x2="-1102.79" y2="926.48"/>
	</g>
	<g>
		<polygon class="st3" points="-995.56,860.07 -1049.47,898.59 -1049.47,831.88 -995.56,793.36 		"/>
		<line class="st3" x1="-1049.47" y1="831.88" x2="-996.15" y2="859.77"/>
		<polygon class="st3" points="-1103.37,860.07 -1049.47,898.59 -1049.47,831.88 -1103.37,793.36 		"/>
		<line class="st3" x1="-1049.47" y1="831.88" x2="-1102.79" y2="859.77"/>
	</g>
	<g>
		<polygon class="st3" points="-995.56,793.36 -1049.47,831.88 -1049.47,765.16 -995.56,726.65 		"/>
		<line class="st3" x1="-1049.47" y1="765.16" x2="-996.15" y2="793.06"/>
		<polygon class="st3" points="-1103.37,793.36 -1049.47,831.88 -1049.47,765.16 -1103.37,726.65 		"/>
		<line class="st3" x1="-1049.47" y1="765.16" x2="-1102.79" y2="793.06"/>
	</g>
	<g>
		<line class="st3" x1="-1049.47" y1="688.13" x2="-1103.37" y2="726.65"/>
		<line class="st3" x1="-1049.47" y1="688.13" x2="-995.56" y2="726.65"/>
	</g>
	<line class="st3" x1="-1049.47" y1="688.13" x2="-1049.47" y2="765.16"/>
	<g>
		<line class="st3" x1="-995.56" y1="1060.21" x2="-1049.47" y2="1165.44"/>
		<line class="st3" x1="-1103.37" y1="1062.72" x2="-1049.47" y2="1165.44"/>
	</g>
	<g>
		<line class="st3" x1="-995.56" y1="993.5" x2="-1049.47" y2="1098.72"/>
		<line class="st3" x1="-1103.37" y1="996.01" x2="-1049.47" y2="1098.72"/>
	</g>
	<g>
		<line class="st3" x1="-995.56" y1="926.78" x2="-1049.47" y2="1032.01"/>
		<line class="st3" x1="-1103.37" y1="929.3" x2="-1049.47" y2="1032.01"/>
	</g>
	<g>
		<line class="st3" x1="-995.56" y1="860.07" x2="-1049.47" y2="965.3"/>
		<line class="st3" x1="-1103.37" y1="862.59" x2="-1049.47" y2="965.3"/>
	</g>
	<g>
		<line class="st3" x1="-995.56" y1="793.36" x2="-1049.47" y2="898.59"/>
		<line class="st3" x1="-1103.37" y1="795.88" x2="-1049.47" y2="898.59"/>
	</g>
	<g>
		<line class="st3" x1="-995.56" y1="726.65" x2="-1049.47" y2="831.88"/>
		<line class="st3" x1="-1103.37" y1="729.16" x2="-1049.47" y2="831.88"/>
	</g>
	<line class="st3" x1="-1049.47" y1="765.16" x2="-995.56" y2="726.65"/>
	<line class="st3" x1="-1049.47" y1="765.16" x2="-1103.37" y2="726.65"/>
</g>
<g>
	<path class="st4" d="M-193,416.98V97c0-23.36-13.85-42.3-30.93-42.3h-325.41c-17.08,0-30.93,18.94-30.93,42.3v319.98"/>
	<line class="st4" x1="-580.26" y1="235.84" x2="-193" y2="235.84"/>
	<g>
		<line class="st4" x1="-456.01" y1="54.71" x2="-456.01" y2="416.98"/>
		<line class="st4" x1="-317.25" y1="54.71" x2="-317.25" y2="416.98"/>
	</g>
</g>
<g>
	<path id="path24297" class="st5" d="M-1524.99,357.19v152.74h-152.74v25.46h152.74v152.74h25.46V535.39h152.74v-25.46h-152.74
		V357.19H-1524.99z"/>
	<path id="path24299" class="st5" d="M-2059.58,357.19v152.74h-152.74v25.46h152.74v152.74h25.46V535.39h152.74v-25.46h-152.74
		V357.19H-2059.58z"/>
	<path id="path24351" class="st5" d="M-1524.99-177.4v152.74h-152.74V0.8h152.74v152.74h25.46V0.8h152.74v-25.46h-152.74V-177.4
		H-1524.99z"/>
	<path id="path24353" class="st5" d="M-2059.58-177.4v152.74h-152.74V0.8h152.74v152.74h25.46V0.8h152.74v-25.46h-152.74V-177.4
		H-2059.58z"/>
	<g id="g26390" transform="translate(-168.00001,-20.999988)" class="st6">
		<path id="path23021" class="st7" d="M-1649.94,97.97c-0.85,0.01-1.7,0.11-2.54,0.3l-124.75,0.1c-7.03,0-12.73,5.7-12.73,12.73
			v127.28v127.28c-0.1,7.03,5.52,12.81,12.55,12.91c7.03,0.1,12.81-5.52,12.91-12.55c0-0.12,0-0.24,0-0.36V250.91h114.75
			c7.03,0,12.73-5.7,12.73-12.73V123.68l114.56-0.05c7.03,0.1,12.81-5.52,12.91-12.55c0.1-7.03-5.52-12.81-12.55-12.91
			c-0.12,0-0.24,0-0.36,0l-124.55,0.1C-1647.97,98.06-1648.96,97.96-1649.94,97.97L-1649.94,97.97z M-1662.47,123.73v101.73h-102.03
			V123.78L-1662.47,123.73z"/>
		<path id="path23044" class="st8" d="M-1446.49,98.17c-3.24,0.1-6.31,1.44-8.6,3.73l-331.14,331.14c-4.97,4.97-4.97,13.03,0.01,18
			c2.39,2.38,5.62,3.72,8.99,3.73l331.14-0.2c7.03,0,12.73-5.7,12.73-12.73V110.9c0-7.03-5.69-12.73-12.72-12.73
			C-1446.22,98.16-1446.35,98.17-1446.49,98.17z M-1458.82,141.62v287.48l-287.68,0.2L-1458.82,141.62z"/>
	</g>
</g>
<rect x="158.83" y="70" class="st4" width="174.38" height="372"/>
<g>
	<line class="st9" x1="154.73" y1="188.88" x2="333.21" y2="188.88"/>
	<line class="st9" x1="154.73" y1="323.12" x2="333.21" y2="323.12"/>
</g>
</svg>
