<?xml version="1.0" encoding="utf-8"?>
<!-- Generator: Adobe Illustrator 25.2.1, SVG Export Plug-In . SVG Version: 6.00 Build 0)  -->
<svg version="1.1" id="Layer_1" xmlns="http://www.w3.org/2000/svg" xmlns:xlink="http://www.w3.org/1999/xlink" x="0px" y="0px"
	 viewBox="0 0 512 512" style="enable-background:new 0 0 512 512;" xml:space="preserve">
<style type="text/css">
	.st0{opacity:0.5;}
	.st1{fill:none;stroke:#FFFFFF;stroke-width:22;stroke-linecap:round;stroke-linejoin:round;stroke-miterlimit:10;}
	.st2{opacity:0.5;fill:none;stroke:#FFFFFF;stroke-width:22;stroke-linecap:round;stroke-linejoin:round;stroke-miterlimit:10;}
	.st3{fill:none;stroke:#FFFFFF;stroke-width:10;stroke-linecap:round;stroke-linejoin:round;stroke-miterlimit:10;}
	.st4{fill:none;stroke:#FFFFFF;stroke-width:40;stroke-linecap:round;stroke-linejoin:round;stroke-miterlimit:10;}
	.st5{opacity:0.9;enable-background:new    ;}
	.st6{enable-background:new    ;}
	.st7{opacity:0.5;fill-rule:evenodd;clip-rule:evenodd;fill:#FFFFFF;enable-background:new    ;}
	.st8{fill:#FFFFFF;}
	.st9{fill:none;stroke:#FFFFFF;stroke-width:40;stroke-linejoin:round;stroke-miterlimit:10;}
</style>
<g class="st0">
	<line class="st1" x1="256" y1="15.85" x2="128.28" y2="82.59"/>
	<line class="st1" x1="256" y1="15.85" x2="383.72" y2="82.59"/>
	<line class="st1" x1="256" y1="15.85" x2="256" y2="149.34"/>
</g>
<g>
	<polygon class="st1" points="383.72,429.41 256,496.15 256,380.55 383.72,313.8 	"/>
	<line class="st1" x1="256" y1="380.55" x2="382.34" y2="428.88"/>
	<polygon class="st1" points="128.28,429.41 256,496.15 256,380.55 128.28,313.8 	"/>
	<line class="st1" x1="256" y1="380.55" x2="129.66" y2="428.88"/>
</g>
<g>
	<polygon class="st1" points="383.72,313.8 256,380.55 256,264.94 383.72,198.2 	"/>
	<line class="st1" x1="256" y1="264.94" x2="382.34" y2="313.28"/>
	<polygon class="st1" points="128.28,313.8 256,380.55 256,264.94 128.28,198.2 	"/>
	<line class="st1" x1="256" y1="264.94" x2="129.66" y2="313.28"/>
</g>
<g>
	<polygon class="st1" points="383.72,198.2 256,264.94 256,149.34 383.72,82.59 	"/>
	<line class="st1" x1="256" y1="149.34" x2="382.34" y2="197.67"/>
	<polygon class="st1" points="128.28,198.2 256,264.94 256,149.34 128.28,82.59 	"/>
	<line class="st1" x1="256" y1="149.34" x2="129.66" y2="197.67"/>
</g>
<g>
	<path class="st2" d="M383.72,82.59"/>
	<path class="st2" d="M256,15.85"/>
</g>
<path class="st2" d="M256,149.34"/>
<path class="st2" d="M256,15.85"/>
<g>
	<line class="st1" x1="383.72" y1="313.8" x2="256" y2="496.15"/>
	<line class="st1" x1="128.28" y1="318.16" x2="256" y2="496.15"/>
</g>
<g>
	<line class="st1" x1="383.72" y1="198.2" x2="256" y2="380.55"/>
	<line class="st1" x1="128.28" y1="202.56" x2="256" y2="380.55"/>
</g>
<g>
	<line class="st1" x1="383.72" y1="82.59" x2="256" y2="264.94"/>
	<line class="st1" x1="128.28" y1="86.95" x2="256" y2="264.94"/>
</g>
<line class="st1" x1="256" y1="149.34" x2="383.72" y2="82.59"/>
<line class="st1" x1="256" y1="149.34" x2="128.28" y2="82.59"/>
<g>
	<g>
		<polygon class="st3" points="309.9,1126.92 256,1165.44 256,1098.72 309.9,1060.21 		"/>
		<line class="st3" x1="256" y1="1098.72" x2="309.32" y2="1126.62"/>
		<polygon class="st3" points="202.1,1126.92 256,1165.44 256,1098.72 202.1,1060.21 		"/>
		<line class="st3" x1="256" y1="1098.72" x2="202.68" y2="1126.62"/>
	</g>
	<g>
		<polygon class="st3" points="309.9,1060.21 256,1098.72 256,1032.01 309.9,993.5 		"/>
		<line class="st3" x1="256" y1="1032.01" x2="309.32" y2="1059.9"/>
		<polygon class="st3" points="202.1,1060.21 256,1098.72 256,1032.01 202.1,993.5 		"/>
		<line class="st3" x1="256" y1="1032.01" x2="202.68" y2="1059.9"/>
	</g>
	<g>
		<polygon class="st3" points="309.9,993.5 256,1032.01 256,965.3 309.9,926.78 		"/>
		<line class="st3" x1="256" y1="965.3" x2="309.32" y2="993.19"/>
		<polygon class="st3" points="202.1,993.5 256,1032.01 256,965.3 202.1,926.78 		"/>
		<line class="st3" x1="256" y1="965.3" x2="202.68" y2="993.19"/>
	</g>
	<g>
		<polygon class="st3" points="309.9,926.78 256,965.3 256,898.59 309.9,860.07 		"/>
		<line class="st3" x1="256" y1="898.59" x2="309.32" y2="926.48"/>
		<polygon class="st3" points="202.1,926.78 256,965.3 256,898.59 202.1,860.07 		"/>
		<line class="st3" x1="256" y1="898.59" x2="202.68" y2="926.48"/>
	</g>
	<g>
		<polygon class="st3" points="309.9,860.07 256,898.59 256,831.88 309.9,793.36 		"/>
		<line class="st3" x1="256" y1="831.88" x2="309.32" y2="859.77"/>
		<polygon class="st3" points="202.1,860.07 256,898.59 256,831.88 202.1,793.36 		"/>
		<line class="st3" x1="256" y1="831.88" x2="202.68" y2="859.77"/>
	</g>
	<g>
		<polygon class="st3" points="309.9,793.36 256,831.88 256,765.16 309.9,726.65 		"/>
		<line class="st3" x1="256" y1="765.16" x2="309.32" y2="793.06"/>
		<polygon class="st3" points="202.1,793.36 256,831.88 256,765.16 202.1,726.65 		"/>
		<line class="st3" x1="256" y1="765.16" x2="202.68" y2="793.06"/>
	</g>
	<g>
		<line class="st3" x1="256" y1="688.13" x2="202.1" y2="726.65"/>
		<line class="st3" x1="256" y1="688.13" x2="309.9" y2="726.65"/>
	</g>
	<line class="st3" x1="256" y1="688.13" x2="256" y2="765.16"/>
	<g>
		<line class="st3" x1="309.9" y1="1060.21" x2="256" y2="1165.44"/>
		<line class="st3" x1="202.1" y1="1062.72" x2="256" y2="1165.44"/>
	</g>
	<g>
		<line class="st3" x1="309.9" y1="993.5" x2="256" y2="1098.72"/>
		<line class="st3" x1="202.1" y1="996.01" x2="256" y2="1098.72"/>
	</g>
	<g>
		<line class="st3" x1="309.9" y1="926.78" x2="256" y2="1032.01"/>
		<line class="st3" x1="202.1" y1="929.3" x2="256" y2="1032.01"/>
	</g>
	<g>
		<line class="st3" x1="309.9" y1="860.07" x2="256" y2="965.3"/>
		<line class="st3" x1="202.1" y1="862.59" x2="256" y2="965.3"/>
	</g>
	<g>
		<line class="st3" x1="309.9" y1="793.36" x2="256" y2="898.59"/>
		<line class="st3" x1="202.1" y1="795.88" x2="256" y2="898.59"/>
	</g>
	<g>
		<line class="st3" x1="309.9" y1="726.65" x2="256" y2="831.88"/>
		<line class="st3" x1="202.1" y1="729.16" x2="256" y2="831.88"/>
	</g>
	<line class="st3" x1="256" y1="765.16" x2="309.9" y2="726.65"/>
	<line class="st3" x1="256" y1="765.16" x2="202.1" y2="726.65"/>
</g>
<g>
	<path class="st4" d="M1112.47,416.98V97c0-23.36-13.85-42.3-30.93-42.3H756.13c-17.08,0-30.93,18.94-30.93,42.3v319.98"/>
	<line class="st4" x1="725.2" y1="235.84" x2="1112.47" y2="235.84"/>
	<g>
		<line class="st4" x1="849.46" y1="54.71" x2="849.46" y2="416.98"/>
		<line class="st4" x1="988.22" y1="54.71" x2="988.22" y2="416.98"/>
	</g>
</g>
<g>
	<path id="path24297" class="st5" d="M-219.52,357.19v152.74h-152.74v25.46h152.74v152.74h25.46V535.39h152.74v-25.46h-152.74
		V357.19H-219.52z"/>
	<path id="path24299" class="st5" d="M-754.12,357.19v152.74h-152.74v25.46h152.74v152.74h25.46V535.39h152.74v-25.46h-152.74
		V357.19H-754.12z"/>
	<path id="path24351" class="st5" d="M-219.52-177.4v152.74h-152.74V0.8h152.74v152.74h25.46V0.8h152.74v-25.46h-152.74V-177.4
		H-219.52z"/>
	<path id="path24353" class="st5" d="M-754.12-177.4v152.74h-152.74V0.8h152.74v152.74h25.46V0.8h152.74v-25.46h-152.74V-177.4
		H-754.12z"/>
	<g id="g26390" transform="translate(-168.00001,-20.999988)" class="st6">
		<path id="path23021" class="st7" d="M-344.48,97.97c-0.85,0.01-1.7,0.11-2.54,0.3l-124.75,0.1c-7.03,0-12.73,5.7-12.73,12.73
			v127.28v127.28c-0.1,7.03,5.52,12.81,12.55,12.91c7.03,0.1,12.81-5.52,12.91-12.55c0-0.12,0-0.24,0-0.36V250.91h114.75
			c7.03,0,12.73-5.7,12.73-12.73V123.68l114.56-0.05c7.03,0.1,12.81-5.52,12.91-12.55c0.1-7.03-5.52-12.81-12.55-12.91
			c-0.12,0-0.24,0-0.36,0l-124.55,0.1C-342.51,98.06-343.49,97.96-344.48,97.97L-344.48,97.97z M-357.01,123.73v101.73h-102.03
			V123.78L-357.01,123.73z"/>
		<path id="path23044" class="st8" d="M-141.02,98.17c-3.24,0.1-6.31,1.44-8.6,3.73l-331.14,331.14c-4.97,4.97-4.97,13.03,0.01,18
			c2.39,2.38,5.62,3.72,8.99,3.73l331.14-0.2c7.03,0,12.73-5.7,12.73-12.73V110.9c0-7.03-5.69-12.73-12.72-12.73
			C-140.75,98.16-140.89,98.17-141.02,98.17z M-153.35,141.62v287.48l-287.68,0.2L-153.35,141.62z"/>
	</g>
</g>
<rect x="1464.29" y="70" class="st4" width="174.38" height="372"/>
<g>
	<line class="st9" x1="1460.19" y1="188.88" x2="1638.68" y2="188.88"/>
	<line class="st9" x1="1460.19" y1="323.12" x2="1638.68" y2="323.12"/>
</g>
</svg>
